<svg width="28" height="24" viewBox="0 0 28 24" fill="none" xmlns="http://www.w3.org/2000/svg">
<path d="M20.8333 16.4288C22.0765 16.4288 23.2688 15.9349 24.1479 15.0558C25.027 14.1768 25.5208 12.9845 25.5208 11.7413C25.5208 10.4981 25.027 9.30579 24.1479 8.42672C23.2688 7.54764 22.0765 7.05378 20.8333 7.05378H16.1458C16.1458 7.05378 9.76475 7.05378 3.6242 1.90367C3.48764 1.78873 3.32109 1.71517 3.14414 1.69165C2.9672 1.66812 2.78722 1.69562 2.62536 1.77089C2.46351 1.84616 2.32652 1.96609 2.23049 2.11656C2.13447 2.26703 2.08341 2.4418 2.08331 2.6203V20.8623C2.08341 21.0408 2.13447 21.2155 2.23049 21.366C2.32652 21.5165 2.46351 21.6364 2.62536 21.7117C2.78722 21.7869 2.9672 21.8144 3.14414 21.7909C3.32109 21.7674 3.48764 21.6938 3.6242 21.5789C9.76475 16.4288 16.1458 16.4288 16.1458 16.4288H20.8333Z" stroke="#F4F7FF" stroke-width="3" stroke-linecap="round" stroke-linejoin="round"/>
</svg>
